<?xml version="1.0" standalone="no"?>
<!DOCTYPE svg PUBLIC "-//W3C//DTD SVG 20010904//EN"
 "http://www.w3.org/TR/2001/REC-SVG-20010904/DTD/svg10.dtd">
<svg version="1.0" xmlns="http://www.w3.org/2000/svg"
 width="700.000000pt" height="700.000000pt" viewBox="0 0 700.000000 700.000000"
 preserveAspectRatio="xMidYMid meet">
<metadata>
Created by potrace 1.14, written by Peter Selinger 2001-2017
</metadata>
<g transform="translate(0.000000,700.000000) scale(0.100000,-0.100000)"
fill="#000000" stroke="none">
<path d="M2770 6978 c-100 -20 -292 -71 -412 -108 l-127 -40 5 -188 c3 -103 7
-202 8 -219 4 -39 5 -38 -114 -94 -177 -82 -419 -225 -540 -320 l-35 -27 -193
115 -192 115 -35 -26 c-47 -36 -321 -310 -368 -368 l-39 -47 115 -193 115
-192 -28 -36 c-73 -93 -200 -303 -283 -469 l-92 -183 -221 5 -222 5 -30 -91
c-72 -217 -82 -267 -82 -406 l0 -130 57 -34 c32 -19 109 -63 171 -98 l113 -63
-6 -71 c-20 -220 -20 -450 0 -651 5 -49 3 -63 -11 -75 -9 -8 -84 -53 -168
-100 l-151 -86 -3 -128 c-3 -140 6 -188 74 -397 l35 -107 222 5 223 6 68 -138
c84 -174 138 -268 236 -414 42 -63 79 -120 83 -126 9 -15 -10 -51 -147 -282
-40 -67 -64 -117 -59 -125 24 -39 335 -355 396 -402 l37 -28 186 112 c102 61
190 111 195 111 6 0 47 -26 92 -58 109 -76 146 -100 247 -157 101 -58 315
-165 329 -165 24 0 25 -19 16 -342 l-3 -118 111 -36 c152 -49 413 -114 458
-114 40 0 43 5 154 205 15 28 43 78 62 113 l35 63 77 -7 c42 -3 96 -8 121 -10
86 -6 306 -5 410 2 164 12 192 11 201 -6 5 -8 41 -73 80 -145 111 -202 117
-210 165 -211 45 -1 313 65 467 115 l97 32 -4 127 c-5 138 -8 264 -7 300 1 14
10 26 24 31 67 26 229 109 370 189 49 29 247 160 268 178 8 8 21 14 27 14 6 0
95 -50 197 -111 183 -110 186 -111 211 -94 34 22 353 340 388 387 l28 38 -85
142 c-119 201 -134 231 -129 248 3 8 44 73 92 145 96 143 157 252 240 424 l55
113 222 -6 222 -5 35 107 c45 139 73 240 101 374 28 131 39 114 -140 213 -69
39 -147 84 -173 100 l-47 31 5 84 c7 127 6 513 -2 611 -7 75 -5 88 10 101 9 8
91 57 182 108 91 51 170 99 176 108 17 24 -40 275 -112 494 l-35 106 -224 -5
-225 -5 -10 28 c-50 130 -228 443 -335 590 l-52 70 115 192 115 192 -26 34
c-30 38 -273 286 -355 360 -29 26 -58 46 -65 43 -7 -2 -95 -54 -197 -115
l-184 -110 -36 27 c-69 54 -221 152 -332 214 -111 61 -158 85 -267 134 l-53
24 6 224 5 225 -127 40 c-131 41 -234 68 -381 100 l-85 19 -15 -21 c-9 -12
-60 -98 -113 -192 l-97 -171 -88 5 c-143 8 -541 6 -629 -3 l-82 -9 -57 104
c-99 178 -159 277 -170 281 -5 2 -30 -1 -55 -5z m1010 -965 c949 -123 1757
-783 2075 -1694 61 -174 116 -432 130 -604 15 -193 15 -216 3 -220 -7 -2 -73
-5 -145 -7 l-133 -4 0 36 c0 53 -13 60 -105 60 l-81 0 -68 193 c-245 687 -540
1213 -877 1562 -197 203 -355 322 -570 429 -476 236 -942 177 -1374 -175 -96
-78 -266 -255 -355 -369 -369 -477 -701 -1202 -945 -2069 -51 -179 -160 -621
-171 -688 -4 -24 -10 -43 -14 -43 -20 0 -124 279 -165 442 -60 242 -73 359
-71 648 2 288 14 385 76 623 136 529 449 1005 887 1353 276 219 623 389 963
473 69 16 141 33 160 35 19 3 46 8 60 11 14 3 57 8 95 11 39 4 72 8 74 10 11
10 459 -1 551 -13z m-110 -327 c305 -66 617 -279 848 -581 183 -238 371 -598
506 -970 20 -55 41 -109 45 -121 14 -33 77 -247 110 -372 l29 -112 -28 0 c-39
0 -63 -24 -105 -107 -27 -52 -45 -75 -66 -83 l-29 -12 -1 -117 c-1 -64 -3
-150 -4 -191 -2 -41 -4 -220 -5 -398 -1 -235 -5 -324 -13 -327 -7 -2 -105 -6
-219 -8 l-207 -4 -53 -34 c-29 -19 -70 -49 -90 -68 -33 -29 -38 -39 -38 -77
l0 -44 -62 0 c-77 -1 -201 -11 -208 -17 -3 -3 -21 -44 -40 -91 -34 -84 -37
-87 -73 -93 -20 -3 -41 -9 -45 -13 -4 -4 -9 -90 -12 -191 -5 -169 -10 -208
-26 -193 -6 7 -13 304 -18 793 -2 208 -7 330 -13 332 -34 12 -46 33 -51 86 -4
54 -5 56 -36 59 -25 2 -33 9 -41 36 l-9 32 -116 0 -116 0 -114 -132 -114 -132
-1 -310 c0 -340 -1 -343 -66 -482 l-29 -61 0 -311 0 -312 -49 0 -49 0 -4 63
c-3 34 -5 145 -7 247 -1 102 -6 189 -11 194 -6 6 -52 12 -103 14 l-93 4 -33
132 c-17 72 -36 137 -40 145 -5 8 -21 -37 -42 -124 -18 -75 -36 -140 -39 -144
-3 -5 -54 -12 -115 -15 -60 -4 -111 -8 -112 -10 -1 -1 -3 -96 -3 -210 -1 -190
-3 -207 -18 -201 -9 4 -25 10 -35 12 -13 4 -17 15 -16 42 3 63 0 81 -16 81 -8
0 -15 3 -15 8 -1 4 -5 27 -10 52 -5 25 -12 85 -16 134 -5 65 -13 99 -30 129
-26 46 -151 177 -169 177 -7 0 -43 -36 -81 -79 -38 -44 -72 -80 -76 -80 -10
-1 -14 106 -17 388 -1 140 -4 257 -6 261 -2 4 -99 6 -216 6 -116 -1 -215 2
-221 5 -12 8 43 342 108 661 145 709 310 1210 558 1693 294 574 595 888 972
1014 49 17 118 34 154 40 81 12 274 5 360 -13z m1837 -3248 c-3 -8 -6 -5 -6 6
-1 11 2 17 5 13 3 -3 4 -12 1 -19z m69 -293 c4 -27 4 -47 0 -44 -7 6 -67 295
-65 313 2 19 59 -216 65 -269z m-2099 223 c-3 -7 -5 -2 -5 12 0 14 2 19 5 13
2 -7 2 -19 0 -25z m5 -42 c3 -14 2 -30 -2 -36 -4 -6 -7 5 -8 25 -2 40 4 46 10
11z m9 -193 c0 -76 2 -145 3 -153 2 -8 7 -130 10 -271 l8 -256 -44 2 c-23 2
-72 4 -108 5 l-65 3 88 12 c49 7 91 16 95 19 5 6 4 373 -2 664 -1 61 1 112 6
112 4 0 8 -62 9 -137z m1288 -469 c-2 -319 -4 -354 -20 -354 -5 0 -9 144 -9
325 l0 325 -214 0 c-202 0 -214 -1 -219 -19 -2 -10 -6 -126 -7 -258 -3 -276
-7 -575 -9 -585 0 -5 -20 -8 -43 -8 -57 0 -88 -9 -88 -26 0 -8 -4 -14 -9 -14
-11 0 -21 25 -21 51 0 20 -2 19 105 23 l40 1 -1 420 -1 420 76 5 c42 3 154 6
249 8 l173 4 -2 -318z m518 104 c-2 -18 -4 -6 -4 27 0 33 2 48 4 33 2 -15 2
-42 0 -60z m-2668 -539 c-6 -57 -14 -107 -18 -111 -9 -11 -1 140 10 186 17 64
20 35 8 -75z"/>
<path d="M3100 5152 c-56 -27 -68 -65 -69 -205 0 -184 17 -209 157 -229 l82
-11 1 -41 c4 -163 1 -176 -40 -176 -34 0 -39 10 -43 95 l-3 50 -78 1 -79 0 4
-90 c5 -143 38 -170 205 -168 102 1 153 17 178 55 23 35 24 291 1 335 -18 35
-71 57 -146 61 -30 1 -61 7 -67 13 -9 7 -13 41 -13 104 0 99 8 116 53 108 27
-4 27 -4 32 -74 3 -35 6 -64 7 -66 7 -6 139 -7 145 0 8 8 6 137 -3 178 -3 15
-20 38 -37 50 -28 20 -46 23 -142 25 -86 1 -118 -2 -145 -15z"/>
<path d="M3603 5127 l-63 -21 -1 -40 c0 -23 -1 -58 -1 -78 0 -33 -4 -38 -24
-38 -23 0 -26 -4 -26 -35 0 -31 3 -35 26 -35 l23 0 1 -203 c1 -112 5 -214 10
-228 20 -52 77 -76 177 -75 l49 1 1 55 c0 54 -1 55 -30 58 -16 2 -34 7 -39 12
-4 5 -9 92 -10 194 l-2 186 38 0 c37 0 41 3 41 35 0 32 -4 35 -38 35 -19 0
-36 5 -36 10 -1 6 -3 42 -4 80 -4 108 -4 110 -17 109 -7 0 -41 -10 -75 -22z"/>
<path d="M3890 4508 c-61 -22 -77 -68 -37 -105 39 -37 88 -34 128 7 29 28 29
30 14 60 -8 16 -17 30 -18 30 -1 0 -16 4 -32 9 -17 5 -41 4 -55 -1z"/>
<path d="M2551 3557 l-2 -383 178 0 178 1 3 58 3 57 -101 0 c-55 0 -100 3
-101 8 0 4 -2 142 -4 307 -2 165 -4 308 -4 318 -1 14 -11 17 -74 17 l-74 0 -2
-383z"/>
<path d="M3869 3938 c-1 -2 -3 -27 -5 -55 l-5 -53 81 0 80 0 -3 53 -2 52 -73
3 c-39 2 -72 2 -73 0z"/>
<path d="M3271 3795 c-13 -20 -21 -38 -19 -41 8 -7 48 46 48 62 0 20 -2 18
-29 -21z"/>
<path d="M3007 3716 l-42 -32 -1 -217 c-1 -194 1 -219 17 -247 11 -17 30 -36
44 -42 29 -13 30 -14 9 -64 l-16 -39 26 27 c14 15 26 39 26 52 0 14 16 67 36
118 57 147 59 137 -31 140 l-77 3 83 115 c125 174 149 209 149 215 0 3 -41 5
-91 4 -85 -2 -93 -4 -132 -33z"/>
<path d="M4140 3734 c-53 -21 -63 -46 -67 -158 -4 -143 22 -173 160 -182 39
-3 74 -10 78 -16 4 -5 6 -26 4 -46 -5 -82 -95 -80 -95 3 l0 34 -72 -2 -73 -2
-1 -55 c-3 -118 35 -147 192 -148 98 -1 147 11 178 45 22 24 24 34 24 126 0
98 0 101 -29 128 -28 26 -112 49 -181 49 -32 0 -43 34 -28 90 10 36 13 39 41
36 16 -2 32 -5 34 -8 4 -4 11 -45 14 -81 1 -4 36 -6 79 -5 l77 3 -3 50 c-8
127 -34 148 -187 151 -76 2 -121 -2 -145 -12z"/>
<path d="M3217 3638 c-68 -156 -67 -148 -10 -149 26 -1 61 -1 76 -1 36 1 34
-4 -45 -115 -36 -48 -84 -117 -107 -152 l-44 -64 96 5 c80 4 102 9 132 29 20
13 38 34 41 46 3 12 7 115 7 229 l1 206 -37 34 c-20 19 -43 34 -51 34 -8 0
-32 -42 -59 -102z"/>
<path d="M3434 3732 c-20 -3 -20 -8 -17 -235 3 -297 2 -293 60 -319 49 -21
140 -21 167 1 7 6 16 8 19 5 3 -3 37 -8 76 -10 59 -2 71 0 75 14 2 9 4 136 4
282 l0 265 -76 0 -77 0 -5 -222 c-3 -122 -7 -224 -10 -226 -3 -3 -17 -8 -32
-12 -42 -11 -48 14 -52 232 -2 109 -5 205 -5 213 -1 11 -14 15 -54 15 -28 0
-61 -1 -73 -3z"/>
<path d="M3864 3725 c-2 -5 -3 -131 -1 -280 l2 -270 75 0 75 0 0 280 0 280
-74 0 c-42 1 -75 -3 -77 -10z"/>
</g>
</svg>
